<svg width="43" height="32" viewBox="0 0 43 32" fill="none" xmlns="http://www.w3.org/2000/svg">
<path d="M8.89095 0C10.1253 0.10563 10.4935 1.34802 10.4994 1.36816L11.4984 6.05859L40.6517 6.00488C41.7545 6.00496 42.3877 6.81653 41.9984 8.05859L38.9984 18.1445V18.0586H19.4984V21.1064H38.1175L37.0003 24.8633C36.811 25.5374 36.2348 26.0654 35.5609 26.0654H32.3617C32.7643 26.6726 32.9994 27.4043 32.9994 28.1914C32.9991 30.2952 31.3203 32.001 29.2494 32.001C27.1784 32.0009 25.4996 30.2952 25.4994 28.1914C25.4994 27.4043 25.7345 26.6726 26.137 26.0654H20.3617C20.7643 26.6726 20.9994 27.4043 20.9994 28.1914C20.9991 30.2952 19.3203 32.001 17.2494 32.001C15.1785 32.0009 13.4996 30.2952 13.4994 28.1914C13.4994 27.4043 13.7345 26.6726 14.137 26.0654H11.9984C11.2741 26.0654 10.6323 25.4664 10.4906 24.7256L6.73568 5.01953C6.62943 4.46172 6.22329 4.01607 5.69369 3.87695L1.34506 2.7373C0.612511 2.55418 0.111655 2.25243 0.0149787 1.57812C-0.10591 0.729557 0.521116 0.00029602 1.31185 0H8.89095Z" fill="white"/>
</svg>
